<?xml version="1.0" encoding="UTF-8"?>
<svg width="362px" height="165px" viewBox="0 0 362 165" version="1.1" xmlns="http://www.w3.org/2000/svg" xmlns:xlink="http://www.w3.org/1999/xlink">
    <!-- Generator: Sketch 51.1 (57501) - http://www.bohemiancoding.com/sketch -->
    <title>Group 46</title>
    <desc>Created with Sketch.</desc>
    <defs>
        <polygon id="path-1" points="0 0 85 0 85 59 0 59"></polygon>
        <polygon id="path-3" points="0.197599033 0.000202690583 86.8395 0.000202690583 86.8395 58.9416108 0.197599033 58.9416108"></polygon>
        <polygon id="path-5" points="0.200189729 0.150448203 86.8395 0.150448203 86.8395 58.9163415 0.200189729 58.9163415"></polygon>
    </defs>
    <g id="Page-1" stroke="none" stroke-width="1" fill="none" fill-rule="evenodd">
        <g id="Artboard-Copy" transform="translate(-110.000000, -65.000000)">
            <g id="Group-46" transform="translate(110.000000, 65.000000)">
                <g id="Group-3">
                    <mask id="mask-2" fill="white">
                        <use xlink:href="#path-1"></use>
                    </mask>
                    <g id="Clip-2"></g>
                    <path d="M77.1959483,0 C77.515268,0.582491652 78.1580011,0.577417683 78.6748486,0.722533199 C82.3234849,1.74443058 85.0243969,5.80056147 84.9998338,9.45178963 C84.8944174,25.2155968 84.955825,40.9804188 84.9496842,56.744226 C84.9496842,57.359191 85.0520303,57.989378 84.7951417,58.5769436 C84.3519834,59.0965181 83.7481417,58.9727132 83.1954731,58.9727132 C73.8492328,58.9798168 64.5050395,58.978802 55.1587992,58.9757576 C54.6521863,58.9757576 54.1302215,59.0366452 53.6543124,58.7535177 C53.1159722,58.1131828 53.3257816,57.3470135 53.3247582,56.6366578 C53.3104297,45.5622129 53.315547,34.4877679 53.3135001,23.4123082 C53.3135001,22.8480828 53.3472743,22.2767539 53.2787024,21.7196321 C53.108808,20.3334238 52.2808286,19.4891153 50.8868755,19.234402 C50.3280661,19.1329227 49.7610691,19.0700054 49.1971424,18.9979551 C46.5074885,18.6559696 44.2998844,19.6291568 42.3819197,21.4304159 C41.5969255,22.1671562 40.7095854,22.8024171 39.9634828,23.5736604 C37.3505884,26.2791007 33.9813568,27.8571051 30.8035122,29.7222962 C29.6275563,30.412356 28.446483,31.0942974 27.2889493,31.8137862 C26.2409258,32.4662987 25.7384068,33.4202048 25.785486,34.6673864 C25.8192601,35.5695382 25.7598994,36.4767638 25.8069786,37.3779007 C25.9175123,39.4927311 26.9071985,40.4456225 29.0452073,40.4709923 C31.4390812,40.5004213 33.832955,40.4709923 36.2258054,40.4841846 C36.8971954,40.4882438 37.6074769,40.3532762 38.1836851,40.8586435 C38.5623655,42.1271358 38.6350312,56.9512439 38.2717027,58.7119112 C36.9913538,59.0437488 2.07497907,59.1147843 0.245031888,58.7880207 C-0.113179249,58.3496298 0.0270348244,57.8209222 0.0270348244,57.3287472 C0.0188471413,41.4512831 -0.00878628928,25.573819 0.0403398095,9.69635494 C0.0526213342,5.65443116 2.61024885,2.00117341 6.43901418,0.766169333 C7.01419892,0.581476858 7.70503468,0.595683972 8.09292617,0 L77.1959483,0 Z" id="Fill-1" fill="#F5B817" mask="url(#mask-2)"></path>
                </g>
                <g id="Group-6" transform="translate(275.000000, 0.000000)">
                    <mask id="mask-4" fill="white">
                        <use xlink:href="#path-3"></use>
                    </mask>
                    <g id="Clip-5"></g>
                    <path d="M86.8397084,58.9416108 L67.1680364,58.9416108 C66.4843481,58.1693596 66.6917474,57.4609561 66.689663,56.8093058 C66.6719455,51.3903731 66.6771565,45.9724538 66.6802831,40.5535211 C66.6875786,29.0457632 57.8298545,20.0513686 47.7464942,18.3122834 C36.2697019,16.3330099 25.7684162,22.1188126 21.398439,32.7904717 C20.2926565,35.4913238 19.9820786,38.371557 19.9528968,41.2548305 C19.9007864,46.4477632 19.9424747,51.640696 19.9320526,56.8326152 C19.9299682,57.4396735 20.0717084,58.076122 19.5495623,58.8960054 C13.2984,58.9020861 6.90028636,58.9294493 0.701234416,58.8777632 C0.0727831169,58.1511175 0.210354545,57.5633148 0.210354545,57.0150368 C0.203059091,41.0420054 0.196805844,25.068974 0.209312338,9.0959426 C0.212438961,5.31576323 2.54594221,2.18520717 6.2634974,0.826166816 C6.89611753,0.594086099 7.65797143,0.617395516 8.11133182,0.000202690583 L78.4801597,0.000202690583 C78.8292994,0.544426906 79.4671305,0.546453812 79.9965721,0.715700448 C83.0669162,1.69874978 85.0960948,3.66586188 86.1059942,6.65453453 C86.2790006,7.16835516 86.2779584,7.78960179 86.8397084,8.13012197 L86.8397084,58.9416108 Z" id="Fill-4" fill="#F5B817" mask="url(#mask-4)"></path>
                </g>
                <path d="M261.445044,0 C261.715053,0.623190742 262.354654,0.616085961 262.871057,0.792690504 C266.527974,2.04414683 268.774277,4.97233134 268.958047,8.77541882 C268.986793,9.33974138 268.977553,9.90609387 268.977553,10.4704164 C268.97858,25.8411014 268.980633,41.2128014 268.970367,56.5834864 C268.96934,57.3020842 269.135657,58.0501161 268.691119,58.8580311 L249.913746,58.8580311 C249.341903,58.1384184 249.521567,57.4340301 249.519513,56.7753155 C249.504114,51.3513231 249.473314,45.9263157 249.519513,40.5013084 C249.602672,30.4977775 242.593753,21.7162689 233.612645,19.0235571 C225.704384,16.6546203 218.382338,18.0146783 211.881609,23.232632 C206.843852,27.2762671 204.369633,32.6434212 203.522649,38.8499544 C203.395345,39.7806807 203.652007,40.7570805 203.655087,41.7131809 C203.671513,46.6865273 203.664327,51.6588586 203.661247,56.6322049 C203.661247,57.3619674 203.711552,58.1069543 203.261881,58.7402948 C201.791723,59.087414 185.762684,59.0853841 184.301765,58.7413097 C183.897266,58.3251726 184.016357,57.7912991 184.016357,57.2970094 C184.010197,41.4746633 184.019437,25.6513023 184.005064,9.82895626 C184.000957,5.23216331 186.623014,1.6858629 190.835346,0.629280553 C191.204939,0.536918408 191.635104,0.45369098 191.783968,0 L261.445044,0 Z" id="Fill-7" fill="#F5B817"></path>
                <g id="Group-11" transform="translate(275.000000, 63.000000)">
                    <mask id="mask-6" fill="white">
                        <use xlink:href="#path-5"></use>
                    </mask>
                    <g id="Clip-10"></g>
                    <path d="M86.8397084,51.1720224 C86.2331435,51.48635 86.2821273,52.1333155 86.0986987,52.6419362 C84.6781695,56.5806948 81.425439,58.8725397 77.1169519,58.8735569 C54.6000526,58.8796603 32.0852377,58.8298155 9.56938052,58.916281 C5.2327539,58.9325569 1.25256234,55.6611086 0.385445455,51.9858155 C0.239536364,51.3663155 0.210354545,50.7559707 0.210354545,50.1354534 C0.20827013,34.2766603 0.20827013,18.41685 0.216607792,2.55703966 C0.216607792,1.83581552 0.0592344156,1.07186724 0.718951948,0.307918966 L19.5985461,0.307918966 C20.1019325,1.01490172 19.9237149,1.71578103 19.9257994,2.37597069 C19.9414325,7.41640172 19.8924487,12.45785 19.9476857,17.498281 C19.9872896,20.9691086 20.3895818,24.4114534 21.9893708,27.5720224 C25.6047896,34.7079707 31.2316695,39.3537121 39.4265494,40.7391948 C43.6401955,41.4512638 47.7933935,41.127781 51.7391922,39.5866603 C59.3077052,36.6295397 64.0893545,31.2208672 66.0851825,23.4725397 C66.5854422,21.5265569 66.7021695,19.571419 66.6917474,17.5816948 C66.6667344,12.4842983 66.6781987,7.38690172 66.689663,2.28950517 C66.6907052,1.67916034 66.5583448,1.04338448 66.9846078,0.292660345 C70.2290006,0.030212069 73.5765721,0.218401724 76.9168481,0.182798276 C80.2237734,0.147194828 83.5317409,0.171608621 86.8397084,0.170591379 L86.8397084,51.1720224 Z" id="Fill-9" fill="#F5B817" mask="url(#mask-6)"></path>
                </g>
                <path d="M169.202673,0 C169.459302,0.539599084 170.014647,0.576113307 170.490951,0.72419877 C174.428665,1.95351097 176.816341,5.04504858 176.969292,9.1427559 C176.994955,9.81928333 176.976477,10.4978393 176.976477,11.175381 C176.976477,26.2527126 176.97853,41.3320727 176.969292,56.4094042 C176.969292,57.133603 177.102739,57.8760589 176.813261,58.5708434 C175.587601,59.0475569 160.736998,59.140871 158.936489,58.6844432 C158.471477,58.1012299 158.650091,57.3973168 158.648038,56.7400608 C158.63264,51.9394547 158.642905,47.1398628 158.638799,42.3392567 C158.63264,35.054669 155.950355,28.9121652 150.491344,24.0081021 C146.655254,20.5625794 142.143717,18.6597826 136.946468,18.1313406 C132.438011,17.67187 128.126645,18.2418976 124.12118,20.2126514 C116.582448,23.9208737 111.933358,29.8929778 110.526005,38.1806923 C110.375107,39.0631194 110.411035,39.9820607 110.408982,40.8837592 C110.398717,46.1925216 110.407956,51.5002697 110.398717,56.8090321 C110.397691,57.4216596 110.502395,58.0484871 110.273482,58.6418433 C109.0663,59.0181426 94.773094,59.140871 92.3618084,58.8000716 C91.8731869,58.3548009 92.0210052,57.7563734 92.0210052,57.2117029 C92.0138196,41.22963 92.0004749,25.2485714 92.0261378,9.26649855 C92.0333234,5.01360577 94.1849004,2.17361059 98.2806984,0.746513018 C98.7467365,0.584227579 99.3154263,0.55887048 99.5504984,0 L169.202673,0 Z" id="Fill-12" fill="#F5B817"></path>
                <path d="M39.1345031,63.2297228 C39.5190578,63.9823025 39.3776003,64.6756561 39.3786482,65.3445023 C39.3880787,76.3779128 39.3838873,87.4113232 39.385983,98.4447336 C39.3870308,102.103476 40.2986455,103.0031 44.0069265,103.01229 C46.0502009,103.016374 48.0924274,103.009226 50.134654,103.014332 C50.8377499,103.016374 51.5303675,102.98574 52.2135546,102.793766 C53.610316,102.40267 54.4056213,101.550018 54.5345047,100.142888 C54.6078531,99.3525264 54.5659397,98.5519532 54.5659397,97.7564857 C54.5680354,87.0641358 54.5648919,76.3728071 54.5722267,65.6804572 C54.5722267,64.9483003 54.4527738,64.2008263 54.7314974,63.516663 C55.1212912,63.0060933 55.6672122,63.04796 56.1869374,63.04796 C65.93388,63.0438754 75.6797748,63.0448966 85.4256696,63.04796 C85.7725023,63.04796 86.1287655,63.0377486 86.5154159,63.2797586 C87.198603,63.9159284 86.9492188,64.8186156 86.9502666,65.6385905 C86.9638884,77.6962036 86.9596971,89.7527956 86.9607449,101.809388 C86.9607449,105.563096 86.8329093,109.32191 86.9942756,113.069491 C87.1818377,117.400143 82.7316909,122.029989 77.8487891,121.997312 C65.2444059,121.911536 52.6389748,121.96872 40.032496,121.96872 C29.9953036,121.969741 19.9560156,121.892135 9.91987104,121.999354 C4.26471631,122.059602 0.0126099778,117.896417 0.00737081282,112.308742 C-0.00625101625,96.6117885 0.00317948079,80.9158559 0.00317948079,65.2189022 L0.00317948079,63.4135279 C1.33811873,62.9764803 36.7140088,62.8396476 39.1345031,63.2297228" id="Fill-14" fill="#F5B817"></path>
                <path d="M184.245485,63.2004923 L203.129606,63.2004923 C203.623289,63.887459 203.65408,64.6826255 203.655106,65.4726882 C203.662291,70.5897221 203.919909,75.7230881 203.602761,80.8207278 C202.988994,90.7118228 210.932046,101.849257 222.397589,103.72438 C229.906488,104.953366 236.603531,103.190526 242.219809,98.0153093 C246.062526,94.4753385 248.473462,90.1095786 249.228868,84.8792411 C249.434141,83.4624361 249.495723,82.0568595 249.495723,80.638013 C249.496749,75.5781412 249.490591,70.5172487 249.502907,65.4573769 C249.503934,64.7867422 249.368453,64.0916096 249.704075,63.4607843 C250.862843,62.9902173 266.075651,62.81771 268.625146,63.2413225 C269.094195,63.6986197 268.95153,64.2978016 268.95153,64.8479874 C268.958715,80.8809522 268.88379,96.9149378 268.99977,112.947903 C269.035693,117.903658 264.864538,122.018312 259.704993,121.999939 C237.638108,121.922361 215.571224,121.930528 193.504339,121.996876 C188.869267,122.011167 184.096662,118.936659 184.024816,112.726399 C183.976577,108.63318 184.013526,104.538941 184.013526,100.444701 C184.013526,88.7897452 184.0125,77.1337686 184.017632,65.4788127 C184.017632,64.804095 183.931417,64.1181491 184.245485,63.2004923" id="Fill-16" fill="#F5B817"></path>
                <path d="M92.2543663,63.1176585 L110.134149,63.1176585 C110.544824,63.8128335 110.392874,64.4538257 110.393901,65.0641484 C110.407248,71.7255602 110.462689,78.3890165 110.382608,85.0504283 C110.3169,90.5402658 112.127978,95.3441292 115.545825,99.5386921 C119.026299,103.811973 123.391779,106.829851 128.902017,107.941108 C136.808546,109.534899 143.989207,108.131259 150.2017,102.753876 C154.308454,99.2003055 157.016859,94.8288818 158.111309,89.515905 C158.477837,87.737075 158.653401,85.9204193 158.650321,84.0925181 C158.639027,77.886037 158.64416,71.6795559 158.649294,65.4720525 C158.650321,64.7942569 158.569212,64.1062382 158.773523,63.5153395 C159.127731,63.0154269 159.591794,63.0021368 160.051751,63.0011145 C165.256035,62.9990699 170.459293,63.0000922 175.663578,63.0021368 C176.007519,63.0021368 176.350433,63.0266724 176.66768,63.2423811 C177.120449,63.6932225 176.978766,64.2922997 176.979793,64.8453728 C176.98698,80.732165 177.000327,96.6189573 176.977739,112.506772 C176.969526,117.450693 174.220054,120.884652 169.608168,121.84563 C169.054783,121.961151 168.474704,121.989776 167.907972,121.989776 C145.662709,121.997955 123.417447,121.993865 101.172184,121.999999 C98.1157317,122.001022 95.6393587,120.851938 93.7184243,118.474031 C92.7112427,117.229872 92.2153521,115.803741 92.0675089,114.245732 C91.9987208,113.510686 92.0110411,112.76644 92.0110411,112.026283 C92.007961,96.4809447 92.007961,80.9366283 92.0130945,65.3912896 C92.0141211,64.713494 91.9135057,64.0234306 92.2543663,63.1176585" id="Fill-18" fill="#F5B817"></path>
                <path d="M144.505592,63.1594305 C145.111661,63.8701229 144.99002,64.5072258 144.99002,65.1140865 C144.984685,70.8349081 145.009227,76.5567377 144.931334,82.2765511 C144.907859,84.1162867 144.653908,85.9459415 144.005158,87.7241845 C143.217695,89.8865039 141.717461,91.4994227 139.906723,92.9046782 C138.165342,94.2565058 133.731862,94.6446144 131.122991,92.3885442 C129.274908,90.7887303 127.943263,88.9096799 127.47484,86.562883 C127.223023,85.2987578 126.997881,84.0235439 127.000015,82.7301846 C127.009618,76.7845625 127.022423,70.8389404 127.041629,64.8933183 C127.042696,64.3943215 126.973339,63.8812117 127.235827,63.410441 C127.567671,62.9920902 128.055301,62.9991467 128.529059,63.0001548 C133.576077,63.0082194 138.620961,63.0193082 143.667979,63.0384616 C143.955008,63.0394697 144.242037,63.1191075 144.505592,63.1594305" id="Fill-20" fill="#F5B817"></path>
                <path d="M144.96288,61 L127.516347,61 C126.978611,60.5235921 127.031958,60.0334518 127.031958,59.5697199 C127.026623,54.5098662 126.949804,49.4468435 127.05543,44.3891025 C127.133317,40.6507263 128.13837,37.2841806 131.083113,34.5567188 C133.364221,32.4451013 138.980571,32.2887635 141.560422,35.2908729 C143.881007,37.994039 144.834847,41.0183315 144.923403,44.346849 C145.068506,49.8112797 144.96288,55.2820484 144.96288,61" id="Fill-22" fill="#F5B817"></path>
                <path d="M328.655518,59 L313.385871,59 C312.952412,58.587962 313.001691,58.1697741 313.001691,57.7792604 C313.003703,52.0742761 313.014765,46.3692917 313.021805,40.6632824 C313.025828,38.0444834 313.986278,35.7669995 315.478747,33.7047594 C317.997037,30.2260104 323.066805,30.3674563 325.323612,32.6295656 C327.039348,34.3494657 328.24519,36.3737819 328.652501,38.8234608 C328.875768,40.1712966 329.009527,41.5252823 328.99947,42.9028423 C328.963265,47.5808065 328.990419,52.2587707 328.97835,56.9377599 C328.976339,57.551717 329.114121,58.1933484 328.655518,59" id="Fill-24" fill="#F5B817"></path>
                <path d="M234.819076,59 L219.367587,59 C218.951358,58.6247058 219.001347,58.2073705 219.002367,57.8166954 C219.007468,52.0580831 218.982984,46.2994709 219.046234,40.541884 C219.08194,37.2852329 220.475492,34.5997262 222.886152,32.4617799 C224.958117,30.624274 228.52871,30.5258362 230.789406,32.1285269 C233.438786,34.0070485 234.835398,36.6587172 234.915992,39.8015496 C235.071058,45.8411198 234.96496,51.8878678 234.959859,57.9315395 C234.959859,58.2104467 234.888447,58.4893538 234.819076,59" id="Fill-26" fill="#F5B817"></path>
                <path d="M311.315535,63 L326.521336,63 C327.075312,63.5185233 326.970127,64.0672417 326.971129,64.5753529 C326.978141,69.844924 327.044258,75.1165775 326.94909,80.3851074 C326.888984,83.7857039 325.885215,86.8479068 323.351749,89.2354046 C320.994595,91.4573498 317.233966,91.6176964 314.789658,89.5071608 C312.616828,87.631939 311.311528,85.1725976 311.175287,82.3103073 C310.878765,76.0651211 311.033037,69.8063992 311.102159,63.5528833 C311.10316,63.4466797 311.180296,63.3404761 311.315535,63" id="Fill-28" fill="#F5B817"></path>
                <path d="M219.187237,63.2491533 C220.771566,62.9072296 233.29911,62.9238077 234.717958,63.2584785 C235.126554,63.8086649 234.970266,64.465573 234.972309,65.0820719 C234.984567,70.450275 234.942686,75.817442 234.991717,81.1846089 C235.025427,84.8121092 233.55959,87.6417874 230.812805,89.8570389 C228.714666,91.5480074 224.89634,91.3293834 222.720568,89.4218632 C220.491678,87.4687533 219.185194,84.9281561 219.101432,82.0280209 C218.922671,75.9158746 219.035035,69.7954392 219.032992,63.6791484 C219.032992,63.5724267 219.10756,63.4646689 219.187237,63.2491533" id="Fill-30" fill="#F5B817"></path>
                <path d="M284.49928,141.863001 C284.190739,143.789842 284.334793,145.762362 284.427764,147.535554 C285.227722,148.271616 285.939817,148.108623 286.605938,148.111738 C289.678063,148.12731 292.751209,148.111738 295.824356,148.124196 C296.439394,148.12731 297.078951,147.998577 297.759375,148.428379 C298.155779,149.636807 298.066894,150.915831 297.816588,152.139832 C297.174987,152.647496 296.525213,152.489694 295.917326,152.492809 C292.786967,152.508381 289.65763,152.492809 286.52727,152.506305 C285.916319,152.508381 285.26961,152.374458 284.726088,152.793878 C284.158046,154.278459 284.183588,158.705209 284.86912,160.296722 L299.700525,160.296722 C300.162314,161.880967 299.973308,163.243044 299.892597,164.57709 C298.679889,165.04219 281.315795,165.161579 279.325605,164.743197 C278.960874,163.48909 278.869946,139.265504 279.221396,137.285716 C280.751839,136.881869 297.681729,136.909899 299.137592,137.34593 C299.407309,138.552282 299.340901,139.797046 299.191739,140.99094 C298.639023,141.600345 297.974945,141.431123 297.371145,141.434238 C293.843361,141.44981 290.314556,141.435276 286.786772,141.447734 C286.114521,141.44981 285.415707,141.319001 284.49928,141.863001" id="Fill-32" fill="#F5B817"></path>
                <path d="M223.931814,164.914032 C222.397324,164.964912 220.841478,165.121705 219.321224,164.818502 C218.95616,163.448897 218.871758,139.380602 219.22767,137.255066 C220.767245,136.804415 222.383087,137.095157 223.881986,137.06193 C224.48297,137.624724 224.325351,138.23736 224.329419,138.793925 C224.346706,141.105328 224.330436,143.416732 224.341622,145.728136 C224.344672,146.353232 224.235865,147.013633 224.719905,147.533855 C226.178129,147.95647 233.893291,147.945048 235.436933,147.472591 C235.909788,145.860008 235.606754,144.125936 235.658616,142.424054 C235.708443,140.758514 235.669801,139.090897 235.669801,137.315291 C237.418856,136.76288 239.039782,137.158498 240.588509,137.021433 C241.107124,138.469954 241.143733,163.169576 240.651557,164.820579 C239.133336,165.11859 237.578508,164.966988 236.129437,164.91507 C235.505065,164.271283 235.682004,163.601536 235.677937,162.9889 C235.659633,160.156237 235.674886,157.32565 235.664717,154.494025 C235.662683,153.86789 235.767423,153.217872 235.42168,152.657155 C234.160733,152.093322 226.375406,152.007137 224.702618,152.531512 C224.217561,153.048619 224.344672,153.712135 224.341622,154.334116 C224.330436,157.164703 224.344672,159.996328 224.330436,162.827954 C224.327385,163.449935 224.463649,164.103067 223.931814,164.914032" id="Fill-34" fill="#F5B817"></path>
                <path d="M356.108676,144.35157 C354.502716,144.69488 352.970938,144.520708 351.439161,144.480437 C351.242676,144.190486 351.031155,143.984097 350.94394,143.73341 C349.951492,140.885245 347.579643,140.366757 345.029354,140.290242 C344.105075,140.262052 343.134682,140.454346 342.264536,140.873164 C340.977361,141.493337 340.093181,142.393394 340.092179,143.963962 C340.092179,145.456001 341.01345,146.166784 342.212407,146.665137 C344.286522,147.527943 346.525042,147.773596 348.67334,148.364573 C349.908386,148.704862 351.136414,149.056227 352.357425,149.452896 C353.945341,149.968364 354.975883,151.11206 356.033491,152.258776 C356.289121,152.535639 356.485606,152.913179 356.587858,153.278638 C357.85398,157.842347 356.208923,161.895621 351.569482,163.752113 C349.997606,164.381347 348.323477,164.522295 346.70649,164.927018 C345.800255,165.155556 344.935122,164.78909 344.070991,164.624986 C342.160279,164.260534 340.240544,163.920244 338.52732,162.866151 C336.095322,161.371091 334.682839,158.785694 335.060771,156.34326 C336.280779,155.941557 337.844636,155.90632 339.531797,156.257684 C339.677155,156.494276 339.912736,156.754024 340.016993,157.060083 C340.695667,159.045442 342.235464,159.93241 344.142166,160.316998 C346.048868,160.701586 347.925496,160.486136 349.729946,159.789448 C350.7655,159.389759 351.485275,158.644746 351.795038,157.525213 C352.19703,156.082505 351.814085,154.991162 350.529919,154.236081 C349.361036,153.549461 348.06083,153.213198 346.753606,152.914186 C344.636385,152.430934 342.487085,152.077557 340.423997,151.369794 C337.782483,150.461684 335.742452,148.912258 335.316401,145.960395 C334.842232,142.682338 335.652229,139.843234 338.541354,137.869956 C341.075604,136.138304 343.933652,135.850367 346.862875,136.058769 C348.070854,136.144345 349.296878,136.391005 350.448718,136.835999 C353.748857,138.112589 355.767836,140.411055 356.108676,144.35157" id="Fill-36" fill="#F5B817"></path>
                <path d="M177.799898,155.440046 C179.510976,155.343692 181.142039,155.266019 182.86235,155.50887 C182.958777,156.877489 182.465355,158.032753 181.829343,159.103461 C179.477124,163.05987 175.829286,165.138361 171.141261,164.992847 C166.590696,164.852249 162.935678,162.820952 160.681938,158.898955 C159.998738,157.713212 159.574046,156.373106 159.352467,155.019235 C158.814935,151.750085 158.844684,148.454388 159.774082,145.275693 C161.032771,140.965331 164.736003,137.255705 170.472422,137.019737 C172.373278,136.94108 174.248488,137.085611 176.046761,137.669634 C179.796156,138.886839 182.194537,141.306502 182.982371,145.086918 C183.015198,145.243247 182.993656,145.410392 182.985449,145.571637 C182.982371,145.62178 182.937235,145.668974 182.802852,145.918708 C181.310275,146.137962 179.694599,146.062255 178.254339,145.964918 C177.494202,145.511662 177.316734,144.907975 177.055148,144.372129 C175.229178,140.630058 169.73075,140.859145 167.603187,142.696751 C165.784397,144.265943 164.912445,146.259879 164.683686,148.46422 C164.425177,150.957623 164.367731,153.477573 165.226348,155.935581 C166.01726,158.20088 168.493604,160.211531 170.862236,160.353112 C173.994083,160.538937 175.986238,159.391539 177.2439,156.673966 C177.403929,156.327879 177.557803,155.978841 177.799898,155.440046" id="Fill-38" fill="#F5B817"></path>
                <path d="M8.58867226,150.213236 C11.1086177,150.17374 13.4147241,150.500097 15.7176859,150.010562 C16.5311126,149.83803 17.2690666,149.498163 17.7523007,148.769578 C18.8351225,147.136758 18.9022093,145.35739 18.2208596,143.621674 C17.5353171,141.874526 15.913705,141.45151 14.1988003,141.401621 C12.799413,141.362126 11.396881,141.390188 9.99644543,141.396425 C9.53103122,141.398503 9.05199002,141.375638 8.58867226,141.888037 L8.58867226,150.213236 Z M3.1211035,137.333603 C3.76262039,136.911627 4.30036248,137.010365 4.81399529,137.009326 C8.48699393,137.00205 12.1589444,137.009326 15.831943,137.005168 C16.8885591,137.005168 17.9189693,137.117418 18.9210774,137.48223 C22.2104238,138.679562 23.8792063,140.941189 23.9882223,144.414699 C24.0165245,145.280478 23.9829811,146.148336 23.9976563,147.015154 C24.0731289,151.47085 21.0164896,154.215775 16.7554338,154.558761 C14.784761,154.716742 12.7941719,154.610728 10.8119685,154.642948 C10.1253777,154.653342 9.40000245,154.509911 8.56246651,155.209394 L8.56246651,164.749593 C6.69556851,165.134153 5.04775062,164.974093 3.56764957,164.925244 C2.92403622,164.393096 3.00370172,163.845358 3.00370172,163.337116 C2.99846057,155.013996 2.99846057,146.689837 3.00579818,138.366717 C3.00579818,138.02581 3.08022252,137.684903 3.1211035,137.333603 Z" id="Fill-40" fill="#F5B817"></path>
                <path d="M123.823605,137.212607 C124.055918,138.606193 124.067077,139.902165 123.807373,141.330019 C121.869741,141.595859 119.958485,141.390248 118.059402,141.460862 C117.343188,141.487862 116.577265,141.313404 115.771778,142.125464 C115.771778,145.733002 115.776851,149.535767 115.771778,153.338531 C115.765692,157.077951 115.800184,160.81841 115.748446,164.60456 C114.002548,165.233854 112.445341,164.918168 111.015956,164.938937 C110.286554,164.287836 110.481332,163.549505 110.480318,162.881789 C110.466115,156.63973 110.475245,150.397671 110.46713,144.155612 C110.466115,143.357053 110.586837,142.526301 109.948737,141.634282 C107.536334,141.173215 104.934225,141.68205 102.27835,141.347672 C101.829956,140.002893 102.027777,138.659153 102.1556,137.33722 C103.444988,136.971689 121.479171,136.863691 123.823605,137.212607" id="Fill-42" fill="#F5B817"></path>
                <path d="M61.2136825,137.272022 C61.5945683,136.942782 61.9876913,137.010292 62.3647529,137.023794 C63.164766,137.054952 63.9747218,136.887735 64.7502603,137.152582 C65.0577223,138.512128 65.0974935,162.988111 64.778559,164.826459 C63.6527281,165.118309 62.486361,164.963556 61.424011,164.919934 C60.9513456,164.346619 61.0033541,163.745261 61.0025892,163.175062 C60.9987651,154.963778 60.9995299,146.752493 61.0025892,138.542248 C61.0025892,138.142381 60.9697015,137.726935 61.2136825,137.272022" id="Fill-44" fill="#F5B817"></path>
            </g>
        </g>
    </g>
</svg>