<?xml version="1.0" encoding="UTF-8"?>
<svg width="598px" height="274px" viewBox="0 0 598 274" version="1.1" xmlns="http://www.w3.org/2000/svg" xmlns:xlink="http://www.w3.org/1999/xlink">
    <!-- Generator: Sketch 52.5 (67469) - http://www.bohemiancoding.com/sketch -->
    <title>1000PitchesShirtDesign</title>
    <desc>Created with Sketch.</desc>
    <g id="Page-1" stroke="none" stroke-width="1" fill="none" fill-rule="evenodd">
        <g id="1000PitchesShirtDesign" fill="#FFFFFF">
            <path d="M1,103 L65.39,103 L65.39,106.58 C65.39,125.493333 65.39,144.403333 65.39,163.31 C65.39,168.49 66.39,169.45 71.47,169.46 C75.47,169.46 79.47,169.46 83.4,169.46 C87.84,169.46 89.07,168.21 89.08,163.71 C89.08,144.703333 89.08,125.703333 89.08,106.71 L89.08,103.16 L142.38,103.16 L142.38,106.32 C142.38,132.793333 142.38,159.27 142.38,185.75 C142.38,195.61 136.08,201.89 126.16,201.9 C90.86,201.9 55.56,201.74 20.25,202.02 C10.76,202.09 4.06,199.12 0.98,189.77 L1,103 Z" id="Path"></path>
            <path d="M130.22,0 L132.86,1.11 C138.76,3.66 142.29,8.11 142.32,14.55 C142.47,42.18 142.38,69.82 142.37,97.45 C142.337405,97.8767672 142.27728,98.3009835 142.19,98.72 L89.1,98.72 L89.1,95.41 C89.1,76.4033333 89.1,57.4033333 89.1,38.41 C89.1,33.26 87.94,32.41 82.77,32.03 C78.4806909,31.5106038 74.201909,33.0756491 71.26,36.24 C65.01,42.79 57.26,47.14 49.42,51.45 C44.31,54.27 42.67,58.82 44.57,64.37 C45.33,66.59 47.04,67.19 49.13,67.2 C53.49,67.2 57.86,67.2 62.22,67.2 C64.01,67.2 65.36,67.71 65.36,69.74 C65.36,79.32 65.36,88.91 65.36,98.96 L1,98.96 L1,12.22 C2.6340972,6.27715224 7.27715224,1.6340972 13.22,0 L130.22,0 Z" id="Path"></path>
            <path d="M597.06,189.76 C596.870358,189.97156 596.709008,190.206863 596.58,190.46 C593.72,198.46 588.92,201.9 580.41,201.9 L472.15,201.9 C471.37,201.9 470.6,201.9 469.82,201.9 C461.981937,201.479893 455.809751,195.058546 455.7,187.21 C455.62,159.76 455.7,132.31 455.7,104.86 C455.7,104.39 455.77,103.92 455.82,103.26 L488.7,103.26 C488.7,104.33 488.7,105.36 488.7,106.39 C488.7,115.99 488.58,125.6 488.76,135.2 C489.258528,153.268797 502.62772,168.386009 520.5,171.09 C539.3,173.71 556.83,163.09 562.19,145.59 C563.279501,141.773528 563.854582,137.828678 563.9,133.86 C564.15,124.75 563.98,115.63 563.98,106.51 L563.98,103 L597.06,103 L597.06,189.76 Z" id="Path"></path>
            <path d="M597.06,99 L564,99 C564,96.62 564,94.61 564,92.6 C563.83,82.14 564.57,71.6 563.26,61.25 C560.81,42.11 543,29 523.11,30.33 C504.205464,31.7860808 489.417004,47.220514 488.77,66.17 C488.55,75.86 488.71,85.56 488.7,95.25 C488.7,96.31 488.7,97.37 488.7,98.66 L455.7,98.66 L455.7,95.41 C455.7,70.01 455.93,44.61 455.58,19.21 C455.42,9.69 458.47,3 467.84,0 L584.84,0 C590.783891,1.63230304 595.427697,6.27610874 597.06,12.22 L597.06,99 Z" id="Path"></path>
            <path d="M433.49,0 C434.08,0.28 434.67,0.6 435.28,0.84 C441.62,3.31 445.39,7.95 445.43,14.72 C445.59,42.36 445.49,70.01 445.43,97.66 C445.383661,97.9995899 445.30668,98.3342886 445.2,98.66 L412.49,98.66 C412.49,97.5 412.49,96.37 412.49,95.25 C412.36,84.25 412.69,73.31 411.96,62.4 C410.96,47.31 395.84,29.08 372.78,30.19 C354.25,31.08 338.27,46.13 337.38,64.69 C336.9,74.69 337.2,84.69 337.15,94.69 C337.15,95.94 337.15,97.19 337.15,98.69 L304.15,98.69 L304.15,18.77 C304.15,7.62 306.39,4.22 316.51,0 L433.49,0 Z" id="Path"></path>
            <path d="M281.57,3.55271368e-15 C285.14,1.31 288.87,2.63 290.82,6.1 C292.25,8.64 293.73,11.62 293.75,14.41 C293.96,42.14 293.87,69.88 293.86,97.61 C293.829798,97.969744 293.776353,98.3271571 293.7,98.68 L262.93,98.68 C262.93,97.57 262.93,96.45 262.93,95.32 C262.81,85.05 263.46,74.69 262.4,64.52 C260.14,42.87 240.04,27.7 218.4,30.47 C198.24,33.05 183.81,49.26 183.65,69.57 C183.58,78.2 183.65,86.83 183.65,95.46 L183.65,98.73 L152.51,98.73 L152.51,95.3 C152.51,70.09 152.72,44.87 152.4,19.66 C152.28,10.15 155.12,3.22 164.57,0 L281.57,3.55271368e-15 Z" id="Path"></path>
            <path d="M568.54,273 C566.98,272.56 565.4,272.16 563.85,271.68 C556.85,269.5 552.75,264.15 553.1,257.49 L561.74,257.49 C565.03,264.49 569.8,266.61 577.35,264.39 C579.97,263.62 581.9,262.21 582.09,259.23 C582.28,256.25 580.25,254.88 577.78,254.23 C573.49,253.05 569.12,252.14 564.78,250.97 C556.41,248.68 553.06,244.57 553.6,237.44 C554.14,230.31 559.1,225.29 566.75,224.16 C572.56,223.3 578.16,223.71 583.3,226.9 C587.6,229.57 589.65,233.49 589.9,238.74 L581,238.74 C578.56,232.58 573.19,230.17 566.77,232.45 C564.43,233.28 562.68,234.71 562.62,237.45 C562.56,240.19 564.41,241.45 566.67,242.06 C570.59,243.15 574.56,244.06 578.5,245.06 C579.63,245.34 580.77,245.59 581.87,245.94 C586.94,247.52 590.69,250.34 591.32,256.09 C591.99,262.2 589.84,267.09 584.49,270.09 C581.93,271.52 578.89,272.09 576.07,273.09 L568.54,273 Z" id="Path"></path>
            <path d="M278.07,273 C277.756896,272.798264 277.421286,272.633814 277.07,272.51 C268.39,270.67 263.49,265.04 261.61,256.67 C259.96,249.31 260.18,241.97 263.61,235.09 C267.23,227.82 273.37,224.27 281.45,224.23 C289.32,224.23 295.98,226.65 299.82,234.1 C300.715303,236.181596 301.473586,238.319486 302.09,240.5 C298.83,240.5 296.14,240.61 293.47,240.43 C292.616752,240.230528 291.904032,239.647058 291.54,238.85 C289.88,234.46 286.63,232.53 282.11,232.49 C277.879436,232.26685 274.002745,234.843183 272.57,238.83 C269.956972,244.870374 269.83121,251.697487 272.22,257.83 C273.684057,262.004103 277.6783,264.753177 282.1,264.63 C286.7,264.63 289.59,262.55 291.39,257.71 C291.642318,256.453016 292.844964,255.621775 294.11,255.83 C296.5,255.93 298.9,255.83 301.31,255.83 C300.733251,263.155234 295.891479,269.451498 288.96,271.89 L285.64,273 L278.07,273 Z" id="Path"></path>
            <path d="M304.31,103.19 L337.15,103.19 C337.15,104.5 337.15,105.64 337.15,106.78 C337.15,116.78 336.9,126.78 337.36,136.78 C338.22,155.43 353.89,170.6 372.57,171.35 C395.42,172.26 412.44,156.01 412.49,133.18 C412.49,123.29 412.49,113.41 412.49,103.29 L445.22,103.29 C445.358242,104.191228 445.44837,105.099182 445.49,106.01 C445.49,132.676667 445.49,159.343333 445.49,186.01 C445.49,195.52 439.1,201.91 429.6,201.92 C393.04,201.92 356.48,201.92 319.92,201.92 C310.92,201.92 304.26,195.84 304.21,187.09 C304.08,159.65 304.15,132.2 304.14,104.76 C304.169389,104.234072 304.226132,103.710029 304.31,103.19 Z" id="Path"></path>
            <path d="M262.93,103.15 L293.93,103.15 L293.93,106.36 C293.93,132.833333 293.93,159.306667 293.93,185.78 C293.93,195.57 287.72,201.89 278.02,201.9 C241.56,201.9 205.096667,201.9 168.63,201.9 C159.19,201.9 152.63,195.76 152.63,186.41 C152.51,159.26 152.63,132.1 152.63,104.95 C152.666313,104.349862 152.736424,103.752247 152.84,103.16 L183.76,103.16 C183.76,104.32 183.76,105.35 183.76,106.39 C183.76,117.83 183.63,129.28 183.81,140.72 C184.294136,160.029745 198.775718,176.107187 217.93,178.6 C237.78,181.12 256.26,169.35 261.42,150.6 C262.416915,146.75862 262.934186,142.808548 262.96,138.84 C263.16,128.08 263.03,117.31 263.03,106.55 L262.93,103.15 Z" id="Path"></path>
            <path d="M209.8,103.14 L239.12,103.14 C238.8,116.41 238.79,129.58 237.97,142.7 C237.77,145.94 235.41,149.42 233.18,152.06 C228.36,157.75 220.37,157.61 215.18,152.25 C211.559219,148.4936 209.555819,143.467149 209.6,138.25 C209.45,126.9 209.54,115.55 209.55,104.25 C209.596301,103.872622 209.680047,103.500789 209.8,103.14 Z" id="Path"></path>
            <path d="M238.38,98.8 L209.75,98.8 C209.67,97.98 209.53,97.24 209.53,96.5 C209.53,88.27 209.53,80.04 209.53,71.81 C209.53,66.33 210.93,61.27 214.66,57.06 C220.05,50.98 228.54,50.82 233.59,57.18 C235.79,60 238,63.6 238.16,67 C238.75,77.45 238.38,88 238.38,98.8 Z" id="Path"></path>
            <path d="M540.68,98.76 L513.5,98.76 C513.43,97.99 513.33,97.35 513.33,96.7 C513.33,87.6 513.33,78.5 513.33,69.4 C513.207644,64.7033337 514.71658,60.1093843 517.6,56.4 C522.91,49.73 531.6,49.57 536.66,56.4 C538.55,58.94 540.37,62.24 540.5,65.27 C541,76.36 540.68,87.46 540.68,98.76 Z" id="Path"></path>
            <path d="M389.16,98.75 L361.83,98.75 C361.83,96.41 361.83,94.2 361.83,92 C361.83,84.34 361.83,76.68 361.83,69 C361.711087,64.093763 363.446525,59.3230927 366.69,55.64 C371.8,49.89 379.9,49.8 384.69,55.85 C386.76,58.49 388.84,61.96 388.99,65.14 C389.48,76.26 389.16,87.4 389.16,98.75 Z" id="Path"></path>
            <path d="M513.38,103.15 L540.63,103.15 C540.77,103.32 540.99,103.47 540.99,103.62 C540.99,113.7 541.17,123.79 540.99,133.86 C540.902707,138.588555 538.93408,143.087247 535.52,146.36 C533.339999,148.635627 530.319754,149.914087 527.16848,149.895172 C524.017207,149.876256 521.012526,148.561632 518.86,146.26 C515.490386,142.948082 513.55805,138.444088 513.48,133.72 C513.24,123.66 513.38,113.58 513.38,103.15 Z" id="Path"></path>
            <path d="M389.57,103.21 L389.57,109.61 C389.57,116.683333 389.57,123.76 389.57,130.84 C389.57,135.69 388.68,140.28 385.74,144.3 C380.27,151.77 371,151.94 365.74,144.3 C363.94,141.68 362.29,138.35 362.17,135.3 C361.74,124.68 362,114.03 362,103.2 L389.57,103.21 Z" id="Path"></path>
            <polygon id="Path" points="460.5 271.54 460.5 225.38 494.32 225.38 494.32 233.27 470 233.27 470 243.27 492.23 243.27 492.23 251.27 470 251.27 470 263.35 495.49 263.35 495.49 271.52"></polygon>
            <polygon id="Path" points="361.52 225.28 370.93 225.28 370.93 242.65 389.08 242.65 389.08 225.38 398.59 225.38 398.59 271.5 389.31 271.5 389.31 251.09 371.11 251.09 371.11 271.47 361.52 271.47"></polygon>
            <path d="M16.21,254.91 L16.21,271.46 L6.74,271.46 L6.74,225.55 C14.86,225.55 23,225.04 31.04,225.72 C37.18,226.24 40.69,230.41 41.38,236.57 C41.6998902,239.742054 41.5176527,242.944708 40.84,246.06 C39.84,250.98 36.08,253.45 31.36,254.31 C28.8735224,254.680598 26.3638956,254.874417 23.85,254.89 C21.45,255 19,254.91 16.21,254.91 Z M16.3,246.83 C19.92,246.83 23.21,247.01 26.46,246.83 C29.98,246.58 31.83,244.3 31.99,240.6 C32.18,236.55 30.79,233.93 27.54,233.6 C23.7941786,233.372574 20.0389806,233.342532 16.29,233.51 L16.3,246.83 Z" id="Shape"></path>
            <polygon id="Path" points="181.5 233.3 167.61 233.3 167.61 225.38 205 225.38 205 233.21 191.3 233.21 191.3 271.51 181.5 271.51"></polygon>
            <polygon id="Path" points="100.79 271.44 100.79 225.31 110.08 225.31 110.08 271.45"></polygon>
        </g>
    </g>
</svg>