<?xml version="1.0" standalone="no"?>
<!DOCTYPE svg PUBLIC "-//W3C//DTD SVG 20010904//EN"
 "http://www.w3.org/TR/2001/REC-SVG-20010904/DTD/svg10.dtd">
<svg version="1.0" xmlns="http://www.w3.org/2000/svg"
 width="300.000000pt" height="300.000000pt" viewBox="0 0 300.000000 300.000000"
 preserveAspectRatio="xMidYMid meet">
<metadata>
Created by potrace 1.11, written by Peter Selinger 2001-2013
</metadata>
<g transform="translate(0.000000,300.000000) scale(0.100000,-0.100000)"
fill="#000000" stroke="none">
<path d="M292 1917 c-21 -22 -22 -32 -22 -205 l0 -182 135 0 135 0 0 65 0 65
-39 0 c-72 0 -67 40 11 91 82 54 89 57 107 52 15 -4 17 -19 17 -136 l-1 -132
112 -3 111 -3 -1 186 c-1 246 27 225 -297 225 -245 0 -247 0 -268 -23z"/>
<path d="M926 1927 c-26 -19 -31 -67 -28 -243 l3 -154 64 0 63 0 4 94 c3 89 5
97 33 126 41 43 76 60 125 60 57 0 107 -26 137 -71 21 -33 25 -50 27 -124 l1
-86 65 3 65 3 -1 182 c0 163 -2 185 -19 203 -17 19 -29 20 -270 20 -193 0
-255 -3 -269 -13z"/>
<path d="M1550 1922 c-22 -18 -23 -24 -24 -205 l-2 -187 68 0 c37 0 68 3 69 8
0 4 2 44 3 89 2 67 7 88 26 116 64 93 205 88 262 -9 13 -22 19 -55 20 -117 l3
-87 67 0 68 0 0 185 c0 172 -1 186 -20 205 -19 19 -33 20 -269 20 -226 0 -251
-2 -271 -18z"/>
<path d="M2172 1915 c-19 -23 -20 -41 -20 -205 l0 -180 68 0 68 0 4 93 c3 77
7 97 27 124 62 83 194 83 253 0 18 -25 23 -49 26 -124 l4 -93 69 0 68 0 0 183
c0 249 28 227 -295 227 l-253 0 -19 -25z"/>
<path d="M1790 1712 c-20 -16 -23 -29 -25 -100 l-2 -82 58 0 59 0 0 75 c0 67
-3 79 -25 100 -29 30 -36 31 -65 7z"/>
<path d="M2419 1711 c-21 -17 -24 -30 -27 -101 l-4 -81 58 3 59 3 1 65 c1 68
-14 113 -41 124 -22 8 -19 9 -46 -13z"/>
<path d="M1155 1700 c-13 -14 -18 -39 -20 -95 l-2 -76 61 3 61 3 0 69 c0 52
-5 75 -18 93 -22 28 -58 30 -82 3z"/>
<path d="M280 1512 c-6 -2 -10 -67 -10 -182 0 -160 2 -180 19 -201 l19 -24
255 0 c229 0 257 2 275 18 17 16 19 33 20 202 l1 185 -32 1 c-99 2 -180 -1
-185 -6 -3 -3 -6 -63 -6 -133 l-1 -127 -47 -3 -47 -3 -3 137 -3 138 -122 1
c-67 0 -127 -1 -133 -3z"/>
<path d="M904 1508 c-7 -11 -5 -353 1 -371 4 -9 17 -19 28 -23 12 -4 128 -8
257 -9 246 -1 288 5 291 43 3 41 5 348 2 357 -4 11 -109 12 -120 1 -4 -3 -8
-46 -9 -94 -2 -98 -10 -125 -49 -164 -56 -56 -148 -61 -213 -11 -48 36 -62 77
-62 183 0 65 -3 90 -12 91 -62 4 -111 3 -114 -3z"/>
<path d="M1158 1510 c-21 -6 -23 -11 -24 -80 0 -42 5 -87 12 -101 22 -44 82
-45 99 -2 10 26 16 183 7 184 -36 4 -75 3 -94 -1z"/>
<path d="M1531 1510 c-3 -3 -6 -87 -6 -188 1 -157 4 -185 18 -199 15 -15 47
-17 259 -18 236 -1 284 3 300 28 4 7 8 94 8 193 l0 182 -43 3 c-24 2 -54 2
-68 -1 -23 -5 -24 -9 -26 -88 -1 -65 -6 -90 -23 -118 -36 -57 -112 -85 -179
-63 -76 24 -104 72 -106 182 -1 42 -5 80 -9 84 -8 8 -115 10 -125 3z"/>
<path d="M1794 1512 l-31 -3 2 -76 c3 -88 24 -121 69 -109 34 8 46 40 46 124
0 74 2 73 -86 64z"/>
<path d="M2167 1512 c-13 -3 -15 -28 -16 -182 0 -160 2 -182 19 -202 18 -23
19 -23 275 -23 253 0 257 1 275 23 16 19 18 44 19 202 1 99 -2 180 -6 181 -36
4 -116 3 -122 -1 -5 -3 -10 -44 -12 -92 -4 -95 -18 -124 -78 -165 -41 -28
-118 -26 -158 3 -55 42 -67 69 -73 166 l-5 90 -51 2 c-28 0 -58 0 -67 -2z"/>
<path d="M2413 1512 c-21 -3 -23 -9 -23 -67 0 -81 12 -113 46 -121 19 -5 31
-1 47 15 17 17 22 35 24 96 1 53 -1 75 -10 76 -7 0 -23 1 -37 2 -14 1 -35 1
-47 -1z"/>
<path d="M1402 1009 c-44 -16 -67 -87 -47 -148 7 -23 53 -51 83 -51 24 0 72
37 72 55 0 24 -19 27 -37 5 -19 -22 -53 -26 -71 -8 -17 17 -15 84 4 102 21 21
36 20 64 -4 29 -25 40 -25 40 -2 0 38 -63 67 -108 51z"/>
<path d="M2595 1008 c-62 -35 -41 -99 38 -113 26 -5 37 -12 37 -25 0 -25 -36
-31 -62 -11 -28 20 -54 21 -50 1 14 -59 130 -65 151 -8 13 37 -6 64 -57 79
-56 17 -72 49 -24 49 17 0 32 -6 36 -15 6 -16 32 -20 40 -6 10 15 -28 50 -59
55 -16 3 -39 0 -50 -6z"/>
<path d="M299 1008 c-1 -2 -2 -45 -3 -96 -1 -88 0 -93 19 -90 12 2 20 11 21
23 1 11 2 25 3 31 0 6 18 11 38 12 43 2 63 22 63 63 0 43 -24 59 -86 59 -30 0
-55 -1 -55 -2z m94 -47 c17 -17 -1 -41 -31 -41 -29 0 -29 0 -23 52 1 9 42 1
54 -11z"/>
<path d="M684 918 c1 -85 3 -93 21 -96 19 -3 20 3 19 85 -2 110 -1 103 -23
103 -17 0 -18 -8 -17 -92z"/>
<path d="M962 993 c2 -12 13 -18 28 -18 24 0 25 -2 26 -75 1 -69 2 -75 22 -78
21 -3 22 0 22 76 0 71 2 80 18 77 18 -3 42 12 42 26 0 5 -36 9 -81 9 -71 0
-80 -2 -77 -17z"/>
<path d="M1763 915 c-1 -87 1 -95 18 -95 20 0 22 6 21 53 -1 27 1 28 66 27 7
0 9 -10 11 -57 1 -15 7 -23 20 -23 17 0 18 9 18 95 -1 91 -2 96 -22 93 -16 -2
-20 -10 -18 -35 2 -32 0 -33 -38 -33 -26 0 -39 4 -38 13 5 37 -2 57 -19 57
-17 0 -19 -10 -19 -95z"/>
<path d="M2171 916 l-1 -94 53 -4 c70 -4 97 1 97 18 0 10 -14 14 -53 14 -49 0
-53 2 -55 25 -2 23 1 25 43 25 44 0 68 16 46 30 -7 4 -28 6 -48 5 -22 -1 -37
4 -40 13 -8 20 14 30 58 27 33 -3 39 0 39 16 0 17 -8 19 -69 19 l-70 0 0 -94z"/>
</g>
</svg>
